<?xml version="1.0" encoding="UTF-8"?>
<!DOCTYPE svg PUBLIC "-//W3C//DTD SVG 1.1//EN" "http://www.w3.org/Graphics/SVG/1.1/DTD/svg11.dtd">
<!-- Creator: CorelDRAW -->
<svg xmlns="http://www.w3.org/2000/svg" xml:space="preserve" width="2048px" height="2048px" style="shape-rendering:geometricPrecision; text-rendering:geometricPrecision; image-rendering:optimizeQuality; fill-rule:evenodd; clip-rule:evenodd"
viewBox="0 0 2048 2048"
 xmlns:xlink="http://www.w3.org/1999/xlink">
 <defs>
  <style type="text/css">
   <![CDATA[
    .fil2 {fill:none}
    .fil6 {fill:#0B88BA}
    .fil7 {fill:#1B9DD1}
    .fil1 {fill:#43A047}
    .fil3 {fill:#4D4D4D}
    .fil5 {fill:#666666}
    .fil0 {fill:#66BB6A}
    .fil4 {fill:#CCCCCC}
    .fil8 {fill:#FFFFFE}
    .fil9 {fill:#4D4D4D;fill-rule:nonzero}
    .fil10 {fill:#FFFFFE;fill-rule:nonzero}
   ]]>
  </style>
   <clipPath id="id0">
    <path d="M1024 -0.0011811c565.541,0 1024,458.461 1024,1024 0,565.541 -458.461,1024 -1024,1024 -565.541,0 -1024,-458.461 -1024,-1024 0,-565.541 458.461,-1024 1024,-1024z"/>
   </clipPath>
 </defs>
 <g id="Layer_x0020_1">
  <metadata id="CorelCorpID_0Corel-Layer"/>
  <path class="fil0" d="M1024 -0.0011811c565.541,0 1024,458.461 1024,1024 0,565.541 -458.461,1024 -1024,1024 -565.541,0 -1024,-458.461 -1024,-1024 0,-565.541 458.461,-1024 1024,-1024z"/>
  <g style="clip-path:url(#id0)">
   <g id="_452518664">
    <path id="_4525311441" class="fil1" d="M1556 478.967l-1064 0c-0.753544,0 -1.50354,0.0188977 -2.24764,0.0578741 -0.745276,0.0377953 -1.48465,0.0944883 -2.21929,0.170079 -0.734646,0.0755906 -1.46457,0.168898 -2.18858,0.281103 -0.724016,0.111024 -1.44331,0.240945 -2.15551,0.387402 -0.712205,0.146457 -1.41732,0.311811 -2.11772,0.49252 -0.699213,0.18189 -1.39252,0.380315 -2.07874,0.595276 -0.686221,0.214961 -1.36536,0.446457 -2.03622,0.693308 -0.670867,0.246851 -1.33583,0.510237 -1.99134,0.788977 -0.655512,0.27874 -1.30394,0.574016 -1.94291,0.883465 -0.638977,0.309449 -1.27087,0.634252 -1.89213,0.973229 -0.622441,0.338977 -1.23543,0.692127 -1.83898,1.06063 -0.603544,0.367323 -1.19764,0.750001 -1.78228,1.14567 -0.584646,0.39567 -1.15866,0.805512 -1.72323,1.22835 -0.564567,0.422835 -1.11969,0.857481 -1.66181,1.3063 -0.543308,0.447638 -1.0748,0.90945 -1.59567,1.38307 -0.520867,0.473622 -1.02992,0.959056 -1.52835,1.45748l-0.0944883 0c-0.497244,0.497244 -0.983859,1.00748 -1.45748,1.52835 -0.473622,0.520867 -0.934253,1.05236 -1.38307,1.59567 -0.448819,0.543308 -0.884646,1.09843 -1.30748,1.66299 -0.422835,0.564567 -0.831497,1.13976 -1.22717,1.72441 -0.39567,0.584646 -0.778347,1.17992 -1.14567,1.78583 -0.368504,0.604725 -0.722835,1.21772 -1.06181,1.84134 -0.338977,0.623623 -0.66378,1.25551 -0.973229,1.89685 -0.309449,0.641339 -0.602363,1.29095 -0.882284,1.94882 -0.27874,0.657875 -0.542126,1.32402 -0.790158,1.99725 -0.246851,0.673229 -0.478347,1.35354 -0.693308,2.04213 -0.214961,0.688583 -0.413386,1.38543 -0.594095,2.08701 -0.18189,0.702756 -0.347244,1.41024 -0.493701,2.12599 -0.146457,0.715749 -0.275197,1.4374 -0.387402,2.16496 -0.111024,0.72756 -0.205512,1.46102 -0.281103,2.19921 -0.0744095,0.73819 -0.132284,1.4811 -0.170079,2.22992 -0.0377953,0.747638 -0.0578741,1.50236 -0.0578741,2.26063l0 508.452 0 99.5599c0,0.753544 0.0188977,1.50354 0.0578741,2.24882 0.0389764,0.745276 0.0956694,1.48583 0.17126,2.22166 0.0755906,0.735827 0.17126,1.46693 0.283465,2.19213 0.112205,0.725197 0.243307,1.44449 0.390945,2.15788 0.147638,0.713386 0.314173,1.41969 0.496063,2.12126 0.183071,0.700394 0.382677,1.39606 0.598819,2.08347 0.216142,0.687402 0.45,1.36772 0.699213,2.04095 0.249213,0.673229 0.514961,1.33819 0.794883,1.99606 0.281103,0.657875 0.577559,1.30748 0.889371,1.94882 0.311811,0.641339 0.638977,1.27559 0.980316,1.89921 0.341339,0.623623 0.698032,1.23898 1.0689,1.84606 0.370866,0.605906 0.757087,1.20236 1.15512,1.78937 0.398032,0.587008 0.811418,1.16457 1.23662,1.7315 0.425197,0.56693 0.865749,1.12323 1.31693,1.6689 0.451181,0.54567 0.916536,1.08071 1.39252,1.60512 0.477166,0.523229 0.966142,1.03583 1.46811,1.5378l190.177 190.177 -12.1866 -0.00708662c-0.511418,0 -1.02402,0.0153543 -1.53543,0.0448819 -0.511418,0.0295276 -1.02047,0.0744095 -1.52953,0.132284 -0.507874,0.0578741 -1.01575,0.129921 -1.51772,0.214961 -0.501969,0.0850394 -1.00039,0.183071 -1.4941,0.292914 -0.49252,0.109843 -0.981497,0.232677 -1.46221,0.367323 -0.480709,0.134646 -0.955513,0.279921 -1.42087,0.437008 -0.465355,0.157087 -0.923623,0.323622 -1.37008,0.501969 -0.447638,0.177165 -0.884646,0.364961 -1.31102,0.562205 -0.426378,0.197244 -0.840946,0.403937 -1.24252,0.618898 -0.401575,0.214961 -0.791339,0.43937 -1.16575,0.670867 -0.37441,0.231496 -0.733465,0.47126 -1.07717,0.719292 -0.343701,0.246851 -0.672048,0.500788 -0.981497,0.761812 -0.31063,0.261024 -0.603544,0.527953 -0.876379,0.800788 -0.274016,0.272835 -0.527953,0.551575 -0.761812,0.83504 -0.233858,0.283465 -0.446457,0.571654 -0.637796,0.865749 -0.191339,0.292914 -0.359055,0.589371 -0.504331,0.890552l-1.51536 3.11575 -1.51536 3.11693 -1.51654 3.11575 -1.51536 3.11575 -1.51654 3.11575 -1.51654 3.11575 -1.51654 3.11575 -1.51654 3.11575 -1.51654 3.11575 -1.51772 3.11575 -1.51654 3.11575 -1.51654 3.11575 -1.51654 3.11575 -1.51654 3.11575 -1.51654 3.11457 -1.51654 3.11575 -1.51654 3.11575 -1.51536 3.11575 -1.51654 3.11457 -1.51536 3.11575 -1.51536 3.11457 -1.51536 3.11575 -1.51536 3.11457 -1.51417 3.11575 -1.51417 3.11457 -1.51417 3.11575 -1.51417 3.11457 -1.51299 3.11575 -1.51181 3.11457 -1.51299 3.11457 -1.51181 3.11575 -1.51063 3.11457 -1.50945 3.11339 -1.51063 3.11339 -1.51063 3.11339 -1.50945 3.11457 -1.51063 3.11457 -1.51063 3.11339 -1.51063 3.11457 -1.51063 3.11457 -1.51063 3.11575 -1.51063 3.11457 -1.51181 3.11457 -1.51063 3.11575 -1.51181 3.11457 -1.51063 3.11575 -1.51181 3.11457 -1.51181 3.11575 -1.51181 3.11575 -1.51299 3.11457 -1.51181 3.11575 -1.51181 3.11575 -1.51299 3.11457 -1.51299 3.11575 -1.51299 3.11575 -1.51299 3.11457 -1.51299 3.11575 -1.51417 3.11457 -1.51417 3.11457 -1.51417 3.11457 -1.51417 3.11457 -1.51417 3.11457 -1.51417 3.11457 -1.51536 3.11457c-0.145276,0.3 -0.255118,0.596457 -0.33189,0.88819l-0.0011811 0.00236221 0 0.00354331c-0.0767717,0.287008 -0.11811,0.571654 -0.129921,0.850394l-0.00236221 0.011811 0.0011811 0.011811c-0.0200788,0.561024 0.0838583,1.10197 0.305906,1.61811l0.00236221 0.00590552 0.00354331 0.00590552c0.225591,0.517323 0.568111,1.00984 1.01811,1.47165l0.00354331 0.00354331 0.0106299 0.0106299c0.22441,0.227953 0.475985,0.448819 0.751182,0.660237l1134.67 1134.67 0.446457 0.537402 0.761812 0.670867 0.918898 0.618898 1.06772 0.562205 1.20945 0.501969 1.34291 0.435827 1.47047 0.367323 1.59095 0.292914 1.70197 0.214961 1.80709 0.132284 1.90512 0.0448819 486.193 0 486.294 0 1.90394 -0.0448819 1.80354 -0.131102 1.69606 -0.21378 1.5815 -0.291733 1.46102 -0.364961 1.32992 -0.435827 1.1941 -0.499607 1.05 -0.559843 0.89882 -0.617717 0.739371 -0.668504 0.572835 -0.71693 0.400394 -0.760631 0.218504 -0.798426 0.0295276 -0.83504 -0.165354 -0.864568 -0.369685 -0.890552 -52.428 -99.456 -1.63819 -3.1063 -1.63819 -3.1063 -1.63937 -3.1063 -1.64055 -3.10748 -1.64055 -3.1063 -1.64055 -3.10748 -1.64055 -3.10748 -1.64173 -3.10748 -1.64291 -3.10748 -1.64173 -3.10866 -1.64291 -3.10748 -1.64291 -3.10866 -1.64291 -3.10748 -1.64291 -3.10866 -1.64291 -3.10866 -1.64291 -3.10866 -1.64291 -3.10866 -1.6441 -3.10748 -1.64291 -3.10866 -1.64291 -3.10866 -1.64291 -3.10866 -1.64291 -3.10866 -1.64173 -3.10866 -1.64291 -3.10866 -1.64173 -3.10866 -1.64173 -3.10866 -1.64055 -3.10866 -1.64173 -3.10866 -1.63937 -3.10748 -1.64055 -3.10866 -1.63937 -3.10866 -1.63819 -3.10748 -0.54567 -0.891733 -0.681497 -0.865749 -0.809056 -0.836221 -183.865 -183.865 322.153 0 2.24764 -0.0578741 2.22047 -0.170079 2.18858 -0.281103 2.15433 -0.387402 2.1189 -0.49252 2.07874 -0.595276 2.03622 -0.693308 1.99134 -0.788977 1.94291 -0.883465 1.89331 -0.973229 1.83898 -1.06063 1.78228 -1.14567 1.72323 -1.22835 1.66063 -1.3063 1.59567 -1.38307 1.52835 -1.45748 1.46811 -1.5378 1.39252 -1.60512 1.31693 -1.6689 1.23662 -1.7315 1.15512 -1.78937 1.0689 -1.84606 0.980316 -1.89803 0.889371 -1.94882 0.794883 -1.99725 0.699213 -2.04095 0.598819 -2.08347 0.496063 -2.12126 0.390945 -2.15788 0.283465 -2.19213 0.17126 -2.22166 0.0578741 -2.24882 0 -99.5599 0 -508.452 -0.0578741 -2.24882 -0.17126 -2.22166 -0.283465 -2.19213 -0.390945 -2.15788 -0.496063 -2.12126 -0.598819 -2.08347 -0.699213 -2.04095 -0.794883 -1.99725 -0.889371 -1.94882 -0.980316 -1.89921 -1.0689 -1.84606 -1.15512 -1.78937 -1.23662 -1.7315 -1.31693 -1.67008 -1.39252 -1.60512 -1.46811 -1.5378 -1135.83 -1135.84 -0.0472441 -0.0472441c-0.497244,-0.497244 -1.00748,-0.983859 -1.52835,-1.45748 -0.520867,-0.473622 -1.05236,-0.934253 -1.59567,-1.38307 -0.543308,-0.448819 -1.09724,-0.883465 -1.66063,-1.3063 -0.564567,-0.422835 -1.13858,-0.832678 -1.72323,-1.22835 -0.584646,-0.39567 -1.17874,-0.778347 -1.78228,-1.14567 -0.603544,-0.368504 -1.21654,-0.721654 -1.83898,-1.06063 -0.622441,-0.338977 -1.25433,-0.66378 -1.89331,-0.973229 -0.638977,-0.309449 -1.2874,-0.603544 -1.94291,-0.883465 -0.655512,-0.27874 -1.31929,-0.542126 -1.99134,-0.788977 -0.670867,-0.246851 -1.35,-0.478347 -2.03622,-0.693308 -0.686221,-0.214961 -1.37953,-0.413386 -2.07874,-0.595276 -0.699213,-0.18189 -1.40669,-0.346063 -2.1189,-0.49252 -0.712205,-0.146457 -1.43032,-0.275197 -2.15433,-0.387402 -0.724016,-0.111024 -1.45394,-0.205512 -2.18858,-0.281103 -0.734646,-0.0744095 -1.4752,-0.132284 -2.22047,-0.170079 -0.745276,-0.0377953 -1.49291,-0.0578741 -2.24764,-0.0578741z"/>
   </g>
  </g>
  <path class="fil2" d="M1024 -0.0011811c565.541,0 1024,458.461 1024,1024 0,565.541 -458.461,1024 -1024,1024 -565.541,0 -1024,-458.461 -1024,-1024 0,-565.541 458.461,-1024 1024,-1024z"/>
  <g id="_319390456">
   <path id="_319407208" class="fil3" d="M491.999 478.967l1064 0c12.0591,0 23.0374,4.94292 31.0016,12.9047 8.01969,8.01851 13.0004,19.0264 13.0004,31.0914l0 608.012c0,12.065 -4.98071,23.0729 -13.0004,31.089 -7.96418,7.96182 -18.9425,12.9047 -31.0016,12.9047l-507.998 0 0 0.223229 -48.0012 0 0 -0.223229 -508 0c-12.0579,0 -23.0351,-4.94292 -31.0004,-12.9047 -8.01969,-8.01733 -13.0004,-19.024 -13.0004,-31.089l0 -608.012c0,-12.1264 4.9441,-23.1295 12.9059,-31.0914l0.0944883 0c7.96536,-7.96182 18.9425,-12.9047 31.0004,-12.9047z"/>
   <path id="_319407664" class="fil3" d="M1048 1145l0 125.969 120.004 0c26.4,0 47.9989,21.5988 47.9989,48l0 0 -383.999 0 0 0c0,-26.4012 21.5988,-48 47.9989,-48l119.997 0 0 -125.969 48.0012 0z"/>
   <path id="_319388608" class="fil4" d="M1600 1031.41l0 99.5599c0,12.065 -4.98071,23.0729 -13.0004,31.089 -7.96418,7.96182 -18.9425,12.9047 -31.0016,12.9047l-486.43 0 -21.5681 0 0 0.0295276 -48.0012 0 0 -0.0295276 -24.1087 0 -483.891 0c-12.0579,0 -23.0351,-4.94292 -31.0004,-12.9047 -8.01969,-8.01733 -13.0004,-19.024 -13.0004,-31.089l0 -99.5599 1152 0z"/>
   <polygon id="_319397440" class="fil5" points="496,1007.02 1552,1007.02 1552,526.968 496,526.968 "/>
   <polygon id="_319386472" class="fil6" points="496,526.993 695.637,526.993 1313.79,1006.99 496,1006.99 "/>
   <polygon id="_319393192" class="fil7" points="695.637,526.993 696.768,526.993 1552,526.993 1552,1006.99 1314.08,1006.99 1313.79,1006.99 "/>
   <circle id="_319406416" class="fil8" cx="1024" cy="1103.21" r="24.4905"/>
   <circle id="_319398832" class="fil5" cx="1024" cy="1103.21" r="17.692"/>
   <path id="_319383928" class="fil9" d="M1419.75 1361.43c-2.5252,-4.813 -11.3138,-8.7378 -19.4965,-8.7378 -126.878,-0.0649607 -253.853,-0.162992 -380.631,-0.238583 -126.874,-0.0755906 -253.753,-0.152362 -380.631,-0.217323 -8.1815,0 -16.5662,3.90355 -18.8882,8.71654 -16.1634,33.2386 -32.3729,66.4689 -48.489,99.6946 -16.1067,33.2079 -32.2252,66.456 -48.3863,99.6733 -2.32441,4.813 4.24134,8.71536 14.6457,8.71536 162.031,0 324.163,0 486.193,0 162.031,0 324.163,0 486.294,0 10.4043,0 16.8685,-3.88111 14.3445,-8.6941 -17.4756,-33.1311 -34.9465,-66.3048 -52.428,-99.456 -17.4697,-33.1311 -35.0528,-66.3048 -52.5284,-99.456z"/>
   <path id="_319411720" class="fil10" d="M1406.92 1401.86c0,0 0,0 0,0 0.302362,0.520867 0,0.93189 -1.41378,0.93189 -11.4154,0 -22.7292,0 -34.0429,0 -1.51536,0 -3.43465,-0.411024 -3.63662,-0.95315 -1.91929,-4.20709 -3.73819,-8.39174 -5.45433,-12.5976 -0.303544,-0.520867 1.21181,-0.975591 2.62559,-0.975591 11.1118,0 22.3252,0 33.437,0.0212599 1.41496,0 2.22284,0.455906 2.5252,0.975591 1.91929,4.18465 3.93898,8.39056 5.95985,12.5976z"/>
   <path id="_319410352" class="fil10" d="M1420.96 1430.48c0,0 0,0 0,0 0.302362,0.801969 -1.41496,1.3441 -4.95118,1.3441 -27.4748,0 -54.8516,-0.022441 -82.2272,-0.022441 -3.53504,0 -7.17166,-0.563386 -7.4752,-1.36536 -2.42362,-6.28819 -4.74685,-12.5752 -7.17166,-18.8847 -0.201969,-0.780709 2.82874,-1.56142 6.26339,-1.54016 26.6681,0.022441 53.4378,0.022441 80.106,0.0437008 3.43347,0 5.85945,0.758268 6.16182,1.56024 3.1311,6.28937 6.16182,12.5764 9.2941,18.8646z"/>
   <path id="_319400632" class="fil10" d="M1434.29 1457.89c0,0 0,0 0,0 0,0.0437008 0,0.0649607 0,0.0874016 0.100394,0.0425197 0.100394,0.0649607 0.100394,0.10748 4.84961,9.86576 9.59765,19.7303 14.3445,29.5748 0.607087,1.25669 0.505512,2.27599 -1.11024,2.27599 -12.5268,-0.0212599 -25.0512,0 -37.4776,0 -1.71732,-0.0212599 -4.14095,-1.04055 -4.64646,-2.27599 -4.14213,-9.43229 -8.28426,-18.8421 -12.4252,-28.252 -8.58662,0 -17.2736,0 -25.8603,0 -1.51536,0 -3.83977,-0.759449 -4.14213,-1.53898 -2.5252,-6.04961 -4.84843,-12.078 -7.37481,-18.1276 -0.302362,-0.737008 1.41496,-1.38662 2.82992,-1.38662 9.59646,0 19.1917,0 28.7894,0 2.12126,0 4.44449,0 6.66733,0 9.59646,0 19.1929,0.0212599 28.7894,0.0212599 1.41378,0 2.22284,0.650788 2.62559,1.40906 3.03071,6.02835 5.85945,12.0555 8.89016,18.1051z"/>
   <path id="_319389280" class="fil10" d="M1463.39 1517.82c0,0 0,0 0,0 0.402756,0.801969 -2.72717,1.14921 -7.88032,1.12795 -40.1032,0 -80.2064,0 -120.31,0 -5.05158,0 -10.102,-0.347244 -10.4055,-1.14921 -2.12126,-6.28819 -4.24134,-12.5764 -6.36378,-18.8847 -0.303544,-0.80315 4.14095,-1.75748 9.09213,-1.75748 39.1937,0 78.3886,0 117.582,0 4.95,0.0212599 8.6882,0.996851 9.09213,1.8 3.03071,6.28701 6.16182,12.5764 9.19253,18.8634z"/>
   <path id="_319391752" class="fil10" d="M1478.44 1548.65c0,0 0,0 0,0 0.200788,0.455906 -0.20315,0.780709 -1.92047,0.780709 -13.3335,0 -26.7685,0 -40.0028,0 -1.81772,0 -4.03937,-0.347244 -4.24134,-0.801969 -1.61693,-3.5563 -3.13229,-7.15512 -4.64764,-10.7327 -0.303544,-0.455906 1.71732,-0.780709 3.43465,-0.780709 13.1315,0 26.2654,0 39.4973,0 1.71732,0 2.32323,0.324803 2.62677,0.780709 1.81772,3.57756 3.43465,7.17638 5.25355,10.7539z"/>
   <path id="_319398232" class="fil10" d="M1411.36 1535.62c0,0 0,0 0,0 0.100394,0.475985 -0.303544,0.758268 -1.92047,0.758268 -13.2319,0 -26.3658,0 -39.4973,0 -1.71732,0 -3.93898,-0.303544 -4.14095,-0.780709 -1.31339,-3.5563 -2.62795,-7.11142 -4.04055,-10.7327 -0.101575,-0.433465 1.81772,-0.823229 3.53386,-0.823229 12.9307,0 25.9618,0 38.9929,0 1.61693,0 2.32441,0.389764 2.5252,0.84567 1.51536,3.59882 3.03189,7.15394 4.54725,10.7327z"/>
   <path id="_319402408" class="fil10" d="M1416.82 1548.63c0,0 0,0 0,0 0.201969,0.454725 -0.20315,0.801969 -1.91929,0.801969 -13.3335,0 -26.7709,0 -40.0028,0 -1.81772,0 -4.04174,-0.347244 -4.14213,-0.780709 -1.41378,-3.57756 -2.62559,-7.17638 -4.04055,-10.7539 -0.201969,-0.477166 1.71732,-0.801969 3.53504,-0.780709 13.1327,0 26.2654,-0.0212599 39.4985,0 1.61693,-0.0212599 2.32323,0.303544 2.62559,0.780709 1.51536,3.57756 2.93032,7.17638 4.44567,10.7327z"/>
   <path id="_319381240" class="fil10" d="M1353.68 1548.63c0,0 0,0 0,0 0.201969,0.454725 -0.303544,0.801969 -1.91929,0.801969 -13.4362,0 -26.7697,0 -40.0028,0 -1.71732,0 -4.04055,-0.347244 -4.14095,-0.801969 -1.11142,-3.5563 -2.22284,-7.15512 -3.33425,-10.7327 -0.201969,-0.477166 1.91929,-0.780709 3.53622,-0.801969 13.1315,0.0212599 26.3646,0.0212599 39.4973,0 1.71732,0.0212599 2.32323,0.324803 2.5252,0.779528 1.31339,3.6 2.52638,7.19882 3.83859,10.7551z"/>
   <path id="_319406344" class="fil10" d="M1290.55 1548c0,0 0,0 0,0 0.201969,0.801969 -1.00866,1.43032 -2.72717,1.43032 -13.3335,0 -26.6681,0 -40.1032,0 -1.71732,0 -3.23268,-0.650788 -3.33307,-1.43032 -1.61693,-6.28819 -3.13229,-12.5976 -4.74804,-18.9071 -0.20315,-0.780709 1.11142,-1.4315 2.72717,-1.4315 13.0311,0 26.1638,0 39.1949,0 1.61457,0 3.1311,0.650788 3.43465,1.45276 1.81772,6.30945 3.63544,12.5976 5.55473,18.8858z"/>
   <path id="_319411480" class="fil10" d="M1229.03 1548c0,0 0,0 0,0 0.20315,0.801969 -1.11142,1.43032 -2.82756,1.43032 -13.3335,0 -26.6681,0 -40.1044,0 -1.61575,0 -3.1311,-0.650788 -3.23268,-1.45276 -1.21181,-6.28819 -2.42481,-12.5752 -3.53504,-18.8847 -0.101575,-0.780709 1.11024,-1.45276 2.82756,-1.4315 13.0323,0 26.0634,0 39.1949,0 1.61693,0 3.13229,0.650788 3.23268,1.4315 1.51536,6.30945 2.92914,12.6189 4.44449,18.9071z"/>
   <path id="_319397152" class="fil10" d="M1165.89 1548c0,0 0,0 0,0 0.101575,0.801969 -11.5158,1.43032 -26.9717,1.43032 -60.8115,0 -121.624,-0.0212599 -182.334,-0.0212599 -60.7123,0 -121.423,0 -182.133,0 -15.4559,0 -28.689,-0.629528 -28.4858,-1.4315 1.71614,-6.28819 3.33189,-12.5965 5.04922,-18.8847 0.201969,-0.801969 13.435,-1.47402 28.5874,-1.47402 59.2973,0 118.695,0.0106299 178.094,0.0212599 59.2949,0.0106299 118.794,0 178.192,0 15.1524,0.0212599 26.7697,0.693308 26.8713,1.47402 1.00984,6.30945 2.12126,12.5976 3.1311,18.8858z"/>
   <path id="_319404640" class="fil10" d="M730.713 1547.96c0,0 0,0 0,0 -0.304725,0.801969 -1.8189,1.45276 -3.53622,1.45276 -13.3335,0 -26.7697,0 -40.1032,0 -1.71732,0 -2.82874,-0.650788 -2.52638,-1.45276 2.02087,-6.28819 4.04055,-12.5976 6.163,-18.9071 0.201969,-0.801969 1.8189,-1.45276 3.43347,-1.45276 13.1327,0 26.1638,0 39.1949,0.022441 1.71732,0 2.82874,0.649607 2.62677,1.45158 -1.8189,6.28819 -3.53622,12.5976 -5.25237,18.8858z"/>
   <path id="_319398304" class="fil10" d="M667.576 1547.96c0,0 0,0 0,0 -0.302362,0.801969 -1.91811,1.45276 -3.53386,1.45276 -13.4362,0 -26.7697,0 -40.0028,0 -1.71732,0 -2.82874,-0.650788 -2.52638,-1.45276 2.42599,-6.28819 4.84961,-12.5976 7.37481,-18.9071 0.302362,-0.801969 1.91929,-1.45276 3.63662,-1.45276 12.9307,0 25.9618,0 39.0933,0 1.61575,0 2.72717,0.650788 2.52638,1.45276 -2.32441,6.30945 -4.44449,12.6189 -6.56812,18.9071z"/>
   <path id="_319394200" class="fil10" d="M606.058 1547.96c0,0 0,0 0,0 -0.303544,0.801969 -1.91929,1.45276 -3.63662,1.45276 -13.3347,0 -26.7697,0 -40.0028,0 -1.8189,0 -2.82756,-0.650788 -2.42481,-1.45276 2.82756,-6.28819 5.65748,-12.5976 8.58662,-18.9071 0.403937,-0.801969 1.91929,-1.45276 3.63662,-1.45276 13.0311,0 26.0622,0 39.1949,0 1.61693,0 2.72599,0.650788 2.32323,1.45276 -2.62677,6.30945 -5.15197,12.6189 -7.67717,18.9071z"/>
   <path id="_319400488" class="fil10" d="M582.521 1498.5c0,0 0,0 0,0 0.201969,-0.801969 3.53622,-1.47402 6.16182,-1.47402 21.0106,0 42.0225,0 63.1347,0 2.72953,0 3.83859,0.672048 3.6378,1.47402 -2.42362,6.30945 -4.74804,12.6189 -7.17284,18.9284 -0.303544,0.80315 -1.91929,1.4315 -4.74685,1.4315 -21.6177,0 -43.1351,0 -64.6512,0 -2.72835,0 -5.35394,-0.628347 -5.0504,-1.4315 2.82874,-6.30945 5.7567,-12.6189 8.68701,-18.9284z"/>
   <path id="_319382992" class="fil10" d="M595.552 1469.62c0,0 0,0 0,0 0.303544,-0.80315 4.34292,-1.69252 7.98071,-1.69252 28.487,0 57.0745,0.022441 85.7635,0.022441 3.53504,0 5.45433,0.88819 5.15079,1.69016 -2.12126,6.30945 -4.24252,12.6189 -6.46536,18.9071 -0.200788,0.82441 -2.62559,1.23662 -6.26221,1.23662 -29.2961,0 -58.5898,-0.022441 -87.8847,-0.022441 -3.63662,0 -7.17166,-0.412205 -6.97087,-1.23543 2.93032,-6.28701 5.85945,-12.5976 8.6882,-18.9059z"/>
   <path id="_319398160" class="fil10" d="M608.786 1440.44c0,0 0,0 0,0 0.303544,-0.801969 3.33307,-1.60512 5.75906,-1.60512 18.8882,0 37.7788,0.022441 56.7697,0.022441 2.52638,0 3.43465,0.801969 3.13229,1.60394 -2.42362,6.30945 -4.74685,12.6189 -7.17284,18.9284 -0.303544,0.80315 -1.71732,1.27913 -4.24252,1.27913 -19.3949,-0.0212599 -38.8914,-0.0212599 -58.1859,-0.0212599 -2.5252,0 -4.95,-0.477166 -4.64646,-1.27913 2.82874,-6.30945 5.6563,-12.6189 8.58662,-18.9284z"/>
   <path id="_319405264" class="fil10" d="M653.94 1430.12c0,0 0,0 0,0 -0.303544,0.801969 -1.71732,1.45276 -3.23268,1.45276 -11.8193,-0.022441 -23.537,-0.022441 -35.2548,-0.022441 -1.51536,0 -2.32323,-0.649607 -2.02087,-1.45276 2.93032,-6.28819 5.75788,-12.5965 8.58662,-18.9059 0.403937,-0.80315 1.81772,-1.4752 3.33307,-1.4752 11.4154,0 22.8295,0.022441 34.3465,0.022441 1.41378,0 2.32323,0.672048 2.01969,1.47402 -2.5252,6.30945 -5.0504,12.6189 -7.77757,18.9071z"/>
   <path id="_319402336" class="fil10" d="M632.121 1388.88c0,0 0,0 0,0 0.302362,-0.520867 2.22284,-0.975591 3.73819,-0.975591 11.1118,0 22.2225,0.0212599 33.4347,0.0212599 1.41496,0 1.71851,0.454725 1.41496,0.975591 -1.61575,4.20591 -3.33307,8.413 -5.0504,12.6189 -0.20315,0.542126 -0.90945,0.954331 -2.32441,0.954331 -11.4142,0 -22.728,-0.0212599 -34.0429,-0.0212599 -1.51417,0 -3.02953,-0.412205 -2.82756,-0.954331 1.91929,-4.20591 3.83977,-8.413 5.65748,-12.6189z"/>
   <path id="_319408120" class="fil10" d="M708.086 1430.14c0,0 0,0 0,0 -0.303544,0.801969 -1.71851,1.4315 -3.23386,1.4315 -11.7165,0 -23.5358,0 -35.152,0 -1.51536,0 -2.42599,-0.650788 -2.12362,-1.45276 2.52638,-6.28819 4.95118,-12.5976 7.37481,-18.9071 0.302362,-0.801969 1.71732,-1.47402 3.23268,-1.47402 11.3138,0 22.8295,0.0212599 34.2449,0.0212599 1.51536,0 2.42481,0.672048 2.12126,1.4752 -2.12126,6.30827 -4.24252,12.6189 -6.46418,18.9059z"/>
   <path id="_319406920" class="fil10" d="M683.639 1388.9c0,0 0,0 0,0 0.303544,-0.520867 2.22166,-0.975591 3.63662,-0.975591 11.1118,0.022441 22.2236,0.022441 33.4359,0.022441 1.41378,0 1.71732,0.454725 1.51536,0.97441 -1.41378,4.20709 -2.82756,8.413 -4.24252,12.6189 -0.201969,0.542126 -0.90945,0.955513 -2.32323,0.955513 -11.3138,0 -22.7292,-0.022441 -34.0429,-0.022441 -1.41378,0 -3.03071,-0.412205 -2.82874,-0.954331 1.61693,-4.20591 3.23268,-8.413 4.84961,-12.6189z"/>
   <path id="_319381072" class="fil10" d="M763.543 1430.16c0,0 0,0 0,0 -0.201969,0.80315 -1.61575,1.4315 -3.13229,1.4315 -11.7177,0 -23.4355,0 -35.2536,0 -1.41496,0 -2.42599,-0.650788 -2.22402,-1.45276 2.12244,-6.28701 4.14331,-12.5976 6.163,-18.9059 0.303544,-0.80315 1.71851,-1.4752 3.1311,-1.4752 11.5158,0 22.9311,0.0212599 34.4469,0.0212599 1.41378,0 2.42481,0.672048 2.22284,1.47402 -1.81772,6.31063 -3.53622,12.6189 -5.35394,18.9071z"/>
   <path id="_319410136" class="fil10" d="M736.369 1388.92c0,0 0,0 0,0 0.201969,-0.519685 2.22284,-0.954331 3.63662,-0.954331 11.1118,0 22.324,0.022441 33.4359,0 1.41496,0 1.8189,0.455906 1.61693,0.975591 -1.11142,4.20709 -2.32323,8.41418 -3.43465,12.6189 -0.201969,0.543308 -0.807875,0.954331 -2.22166,0.954331 -11.4154,0 -22.7292,-0.0200788 -34.1445,-0.0200788 -1.41378,0 -3.1311,-0.413386 -2.92914,-0.934253 1.31221,-4.22717 2.72717,-8.43308 4.04055,-12.6402z"/>
   <path id="_319382800" class="fil10" d="M817.688 1430.16c0,0 0,0 0,0 -0.20315,0.80315 -1.51654,1.45394 -3.03071,1.45394 -11.8205,0 -23.537,0 -35.2559,0 -1.51536,0 -2.52402,-0.650788 -2.32205,-1.45394 1.71614,-6.28819 3.33307,-12.5965 4.94882,-18.9071 0.20315,-0.801969 1.61693,-1.47402 3.03071,-1.47402 11.4154,0.022441 22.9311,0.022441 34.3453,0.022441 1.51536,0 2.5252,0.670867 2.32323,1.47402 -1.31221,6.30945 -2.62559,12.6189 -4.03937,18.8847z"/>
   <path id="_319387600" class="fil10" d="M787.888 1388.96c0,0 0,0 0,0 0.201969,-0.520867 2.12126,-0.976772 3.53504,-0.976772 11.1118,0 22.3252,0 33.437,0.0212599 1.41496,0 1.8189,0.455906 1.71732,0.975591 -0.910631,4.18465 -1.8189,8.39174 -2.72835,12.5988 -0.100394,0.540945 -0.7063,0.95315 -2.12126,0.95315 -11.4142,0 -22.7292,0 -34.1433,-0.022441 -1.41378,0 -3.12992,-0.411024 -2.92914,-0.954331 1.00984,-4.20473 2.12126,-8.41182 3.23268,-12.5953z"/>
   <path id="_319390000" class="fil10" d="M873.145 1430.18c0,0 0,0 0,0 -0.100394,0.801969 -1.4126,1.45158 -3.02953,1.45158 -11.7177,0 -23.537,0 -35.1532,0 -1.51536,-0.0200788 -2.62677,-0.649607 -2.42481,-1.45158 1.31339,-6.28819 2.5252,-12.5976 3.73701,-18.9071 0.20315,-0.80315 1.51536,-1.47402 2.92914,-1.47402 11.4154,0.0212599 22.8307,0.0212599 34.3465,0.0212599 1.51536,0 2.62677,0.672048 2.5252,1.4752 -1.00984,6.30827 -1.91929,12.6177 -2.93032,18.8847z"/>
   <path id="_319410112" class="fil10" d="M840.719 1388.98c0,0 0,0 0,0 0.20315,-0.519685 2.02087,-0.975591 3.43583,-0.975591 11.1118,0 22.2236,0 33.437,0.022441 1.51417,0 1.91811,0.454725 1.81772,0.975591 -0.605906,4.20591 -1.31339,8.39056 -1.91929,12.5965 -0.101575,0.543308 -0.607087,0.955513 -2.12244,0.955513 -11.4154,0 -22.728,0 -34.0418,-0.022441 -1.41496,0 -3.23268,-0.412205 -3.03071,-0.933072 0.807875,-4.20591 1.61575,-8.41182 2.42362,-12.6189z"/>
   <path id="_319399120" class="fil10" d="M927.191 1430.2c0,0 0,0 0,0 0,0.801969 -1.31457,1.45276 -2.72953,1.45276 -11.8181,0 -23.5358,0 -35.3551,-0.022441 -1.41378,0 -2.62677,-0.628347 -2.5252,-1.43032 1.00984,-6.28819 1.81772,-12.5976 2.62677,-18.9059 0.100394,-0.80315 1.4126,-1.4752 2.82756,-1.4752 11.4154,0 22.9311,0.0212599 34.3465,0.0212599 1.51536,0 2.62677,0.672048 2.5252,1.4752 -0.505512,6.30945 -1.00984,12.6189 -1.71614,18.8847z"/>
   <path id="_319409320" class="fil10" d="M892.237 1389.01c0,0 0,0 0,0 0.101575,-0.520867 1.91929,-0.975591 3.33425,-0.975591 11.2134,0 22.324,0.0212599 33.5374,0.0212599 1.41378,0 1.92047,0.455906 1.8189,0.975591 -0.405118,4.20709 -0.809056,8.413 -1.1126,12.6189 -0.100394,0.520867 -0.605906,0.93189 -2.01969,0.93189 -11.4154,0 -22.7292,0 -34.1433,-0.0200788 -1.41496,0 -3.23268,-0.412205 -3.13229,-0.933072 0.607087,-4.20591 1.1126,-8.413 1.71732,-12.6189z"/>
   <path id="_319381048" class="fil10" d="M982.648 1430.22c0,0 0,0 0,0 0,0.801969 -1.21299,1.45394 -2.72835,1.45394 -11.8181,0 -23.537,-0.022441 -35.2536,-0.022441 -1.41496,0 -2.62795,-0.629528 -2.52638,-1.4315 0.505512,-6.28701 0.90945,-12.5965 1.31221,-18.9059 0.101575,-0.80315 1.31457,-1.4752 2.72953,-1.45276 11.4142,0 22.8295,0 34.3441,0 1.41378,0 2.62677,0.672048 2.62677,1.49528 -0.201969,6.28819 -0.303544,12.5976 -0.504331,18.8634z"/>
   <path id="_319404592" class="fil10" d="M945.069 1389.03c0,0 0,0 0,0 0.101575,-0.519685 1.91929,-0.954331 3.23386,-0.975591 11.1106,0.0212599 22.3229,0.0212599 33.4347,0.0212599 1.41496,0 1.92047,0.455906 1.92047,0.976772 -0.101575,4.20591 -0.20315,8.41182 -0.303544,12.6189 0,0.519685 -0.505512,0.95315 -2.02087,0.93189 -11.3138,0 -22.728,0 -33.9414,0 -1.41378,0 -3.2315,-0.433465 -3.2315,-0.954331 0.303544,-4.20591 0.605906,-8.41182 0.908268,-12.6189z"/>
   <path id="_319403368" class="fil10" d="M1036.69 1430.25c0,0 0,0 0,0 0.100394,0.801969 -1.1126,1.45276 -2.62677,1.45276 -11.7177,0 -23.5382,-0.0212599 -35.1544,-0.0212599 -1.51536,0 -2.72717,-0.629528 -2.72717,-1.4315 0.101575,-6.28819 0.201969,-12.5976 0.201969,-18.8858 0,-0.801969 1.21299,-1.47402 2.62677,-1.47402 11.4142,0 22.8295,0 34.3453,0 1.41378,0 2.62677,0.672048 2.62677,1.47402 0.302362,6.31063 0.605906,12.6189 0.707481,18.8858z"/>
   <path id="_319391128" class="fil10" d="M996.589 1389.07c0,0 0,0 0,0 0,-0.542126 1.81772,-0.975591 3.2315,-0.975591 11.0114,0 22.2236,0.0212599 33.3355,0.0212599 1.41496,0 2.02087,0.455906 2.02087,0.954331 0.100394,4.20591 0.302362,8.413 0.504331,12.6189 0,0.542126 -0.504331,0.954331 -1.91811,0.954331 -11.4154,0 -22.7292,-0.022441 -34.0429,-0.022441 -1.41496,0 -3.23268,-0.411024 -3.23268,-0.95315 0,-4.20709 0,-8.413 0.101575,-12.5976z"/>
   <path id="_319411984" class="fil10" d="M1092.15 1430.27c0,0 0,0 0,0 0.201969,0.801969 -1.00984,1.45276 -2.5252,1.45276 -11.7177,0 -23.4355,0 -35.1544,-0.0212599 -1.51417,0 -2.82756,-0.650788 -2.92914,-1.45276 -0.201969,-6.26693 -0.605906,-12.5752 -1.01102,-18.8858 0,-0.801969 1.1126,-1.47402 2.62795,-1.47402 11.4154,0.022441 22.8295,0.022441 34.3453,0.022441 1.41378,0 2.72717,0.672048 2.82874,1.47402 0.605906,6.30945 1.31221,12.5965 1.81772,18.8847z"/>
   <path id="_319411912" class="fil10" d="M1049.32 1389.07c0,0 0,0 0,0 0,-0.498426 1.71851,-0.954331 3.23268,-0.954331 11.1118,0 22.2236,0 33.437,0.0212599 1.41496,-0.0212599 1.91929,0.454725 2.02087,0.975591 0.402756,4.18583 0.806694,8.39174 1.31221,12.5976 0,0.542126 -0.505512,0.933072 -1.91811,0.933072 -11.3138,0 -22.7292,0 -33.9425,0 -1.51536,0 -3.43465,-0.412205 -3.43465,-0.954331 -0.302362,-4.20591 -0.504331,-8.413 -0.707481,-12.6189z"/>
   <path id="_319398784" class="fil10" d="M1146.29 1430.29c0,0 0,0 0,0 0.201969,0.801969 -0.90945,1.45158 -2.42481,1.45158 -11.8193,-0.0212599 -23.537,-0.0212599 -35.2548,-0.0212599 -1.51536,0 -2.72835,-0.650788 -2.82874,-1.45276 -0.707481,-6.26575 -1.41378,-12.5752 -2.22284,-18.8622 -0.100394,-0.80315 0.90945,-1.4752 2.42481,-1.4752 11.4154,0 22.8295,0 34.3453,0.0212599 1.41496,0 2.72835,0.650788 2.82992,1.45394 1.11024,6.30827 2.12126,12.6177 3.1311,18.8847z"/>
   <path id="_319400248" class="fil10" d="M1100.94 1389.11c0,0 0,0 0,0 -0.100394,-0.520867 1.51536,-0.975591 3.02953,-0.975591 11.113,0 22.2236,0 33.437,0.022441 1.41496,0 2.02087,0.455906 2.12126,0.975591 0.605906,4.20591 1.31457,8.39174 2.02087,12.5965 0.100394,0.543308 -0.303544,0.954331 -1.8189,0.954331 -11.3138,-0.0212599 -22.6276,-0.0212599 -33.9414,-0.0212599 -1.51417,0 -3.33307,-0.412205 -3.43347,-0.954331 -0.506693,-4.18347 -1.01102,-8.39056 -1.41496,-12.5976z"/>
   <path id="_319391440" class="fil10" d="M1201.75 1430.31c0,0 0,0 0,0 0.303544,0.801969 -0.809056,1.45276 -2.32441,1.45276 -11.7165,0 -23.5358,-0.022441 -35.2536,-0.022441 -1.51536,0 -2.82874,-0.649607 -3.03071,-1.45158 -1.00984,-6.26693 -2.22166,-12.5764 -3.43347,-18.8847 -0.101575,-0.78189 0.908268,-1.45394 2.32323,-1.45394 11.5146,0 22.9299,0 34.4469,0 1.41378,0 2.82756,0.693308 2.92796,1.47402 1.51654,6.31063 3.03189,12.5976 4.3441,18.8858z"/>
   <path id="_319411264" class="fil10" d="M1153.67 1389.14c0,0 0,0 0,0 -0.100394,-0.519685 1.61575,-0.975591 3.03071,-0.975591 11.1118,0 22.3252,0.0212599 33.437,0.0212599 1.41378,0 2.01969,0.455906 2.22166,0.975591 0.908268,4.18465 1.8189,8.39056 2.82874,12.5976 0.100394,0.542126 -0.303544,0.95315 -1.71851,0.95315 -11.3138,0 -22.728,-0.0212599 -34.0429,-0.0212599 -1.51417,0 -3.43229,-0.411024 -3.43229,-0.954331 -0.809056,-4.20473 -1.61693,-8.39056 -2.32441,-12.5965z"/>
   <path id="_319410304" class="fil10" d="M1255.9 1430.33c0,0 0,0 0,0 0.302362,0.80315 -0.807875,1.4315 -2.22284,1.4315 -11.8193,0 -23.5358,0 -35.3563,0 -1.41378,0 -2.82756,-0.650788 -3.02953,-1.45276 -1.51536,-6.28819 -3.03189,-12.5752 -4.64764,-18.8634 -0.201969,-0.80315 0.809056,-1.49646 2.22402,-1.49646 11.5146,0.022441 22.9299,0.022441 34.4457,0.0437008 1.41378,-0.0212599 2.82756,0.672048 3.03071,1.47402 1.91811,6.28819 3.73701,12.5752 5.55591,18.8634z"/>
   <path id="_319410616" class="fil10" d="M1205.19 1389.16c0,0 0,0 0,0 -0.201969,-0.519685 1.51536,-0.975591 2.93032,-0.975591 11.1106,0.022441 22.324,0.022441 33.4359,0.022441 1.41378,0 2.12126,0.454725 2.32323,0.975591 1.11142,4.18465 2.32323,8.39056 3.63662,12.5965 0.101575,0.543308 -0.303544,0.954331 -1.71732,0.954331 -11.3138,0 -22.728,0 -34.0418,-0.022441 -1.41496,0 -3.43583,-0.411024 -3.53622,-0.95315 -1.00984,-4.18465 -2.12126,-8.413 -3.03071,-12.5976z"/>
   <path id="_319411168" class="fil10" d="M1311.25 1430.36c0,0 0,0 0,0 0.405118,0.801969 -0.604725,1.45158 -2.12008,1.45158 -11.8193,-0.0200788 -23.537,-0.0200788 -35.2548,-0.0200788 -1.41496,0 -2.82874,-0.650788 -3.1311,-1.45394 -1.92047,-6.26575 -3.83859,-12.5752 -5.85945,-18.8634 -0.201969,-0.801969 0.7063,-1.47402 2.12126,-1.47402 11.4154,0 22.9299,0 34.3453,0 1.41496,0 2.92914,0.693308 3.23268,1.49646 2.22166,6.28701 4.54607,12.5752 6.66615,18.8634z"/>
   <path id="_319381144" class="fil10" d="M1332.17 1488.46c0,0 0,0 0,0 0.302362,0.801969 -0.807875,1.45276 -2.42362,1.4315 -12.528,0.0212599 -25.0524,0.0212599 -37.5792,0 -1.51536,0.0212599 -3.02953,-0.629528 -3.23268,-1.4315 -2.02087,-6.30945 -3.93898,-12.6189 -5.95985,-18.9071 -0.201969,-0.801969 0.90945,-1.45276 2.42481,-1.45276 12.1217,0 24.4453,0 36.6697,0.022441 1.51536,0 3.02953,0.649607 3.33307,1.45276 2.22166,6.28701 4.54489,12.5752 6.76772,18.8847z"/>
   <path id="_319408888" class="fil10" d="M1312.77 1517.49c0,0 0,0 0,0 0.303544,0.801969 -0.90945,1.45394 -2.52402,1.45394 -12.9307,0 -25.8603,0 -38.6906,0 -1.71732,-0.022441 -3.1311,-0.651969 -3.43465,-1.45394 -1.81654,-6.30827 -3.53504,-12.5965 -5.25237,-18.8847 -0.201969,-0.801969 0.90945,-1.45276 2.42481,-1.47402 12.6272,0.0212599 25.2532,0 37.8815,0 1.61575,0 3.23268,0.672048 3.43465,1.47402 2.01969,6.28819 4.04055,12.5764 6.16063,18.8847z"/>
   <path id="_319383160" class="fil10" d="M1289.64 1459.39c0,0 0,0 0,0 0.201969,0.80315 -0.807875,1.4315 -2.42481,1.4315 -12.1217,0 -24.2445,0 -36.4677,0 -1.51417,0 -2.92914,-0.650788 -3.12992,-1.45276 -1.71732,-6.26693 -3.43465,-12.5752 -5.25355,-18.8634 -0.201969,-0.801969 0.908268,-1.45276 2.42362,-1.45276 11.8193,0 23.7402,0 35.5583,0.0212599 1.51536,0 2.92914,0.629528 3.13229,1.4315 2.01969,6.30945 4.14213,12.5965 6.16182,18.8847z"/>
   <path id="_319410064" class="fil10" d="M1273.07 1488.44c0,0 0,0 0,0 0.201969,0.801969 -1.00984,1.45394 -2.5252,1.45394 -12.6272,0 -25.1528,0 -37.6784,0 -1.61693,-0.022441 -3.03071,-0.651969 -3.23386,-1.4752 -1.51417,-6.28701 -3.12992,-12.5976 -4.64646,-18.8847 -0.200788,-0.80315 0.908268,-1.45276 2.42481,-1.45276 12.3248,0.0212599 24.5469,0.0212599 36.7689,0.0212599 1.61693,0 3.03189,0.650788 3.23268,1.45276 1.92047,6.28819 3.73819,12.5764 5.65748,18.8847z"/>
   <path id="_319397128" class="fil10" d="M1251.76 1517.49c0,0 0,0 0,0 0.201969,0.801969 -1.01102,1.4315 -2.62559,1.4315 -12.9307,0.022441 -25.8603,0.022441 -38.791,0.022441 -1.71732,-0.022441 -3.1311,-0.651969 -3.33425,-1.45394 -1.41378,-6.30827 -2.72599,-12.6189 -4.04055,-18.9059 -0.201969,-0.801969 1.01102,-1.45276 2.52638,-1.45276 12.7276,0 25.3547,0 37.9819,0 1.61575,0 3.1311,0.650788 3.33307,1.45276 1.61575,6.30945 3.23268,12.5976 4.95,18.9059z"/>
   <path id="_319398880" class="fil10" d="M1233.67 1459.37c0,0 0,0 0,0 0.201969,0.801969 -0.90945,1.45276 -2.42481,1.45276 -12.1217,-0.0212599 -24.3461,-0.0212599 -36.4666,-0.0212599 -1.51654,0 -2.93032,-0.629528 -3.13229,-1.4315 -1.31221,-6.28819 -2.62559,-12.5752 -3.93898,-18.8858 -0.201969,-0.801969 0.90945,-1.45158 2.42481,-1.45158 11.8181,0 23.7378,0.0212599 35.5571,0.0212599 1.51536,0 2.82874,0.650788 3.03071,1.45276 1.71732,6.28819 3.33307,12.5965 4.95,18.8634z"/>
   <path id="_319393432" class="fil10" d="M1215.29 1488.44c0,0 0,0 0,0 0.100394,0.780709 -1.01102,1.4315 -2.62677,1.4315 -12.5256,0 -25.0524,0.022441 -37.6784,0 -1.51536,0 -2.93032,-0.650788 -3.13229,-1.45276 -1.11142,-6.28701 -2.32323,-12.5976 -3.43465,-18.8847 -0.201969,-0.82441 1.00984,-1.45276 2.5252,-1.45276 12.3248,0 24.5469,0 36.7701,0 1.61693,0 2.92914,0.649607 3.1311,1.45276 1.51536,6.30945 2.93032,12.5976 4.44567,18.9059z"/>
   <path id="_319393000" class="fil10" d="M1192.16 1517.47c0,0 0,0 0,0 0.201969,0.823229 -1.01102,1.4752 -2.72717,1.45276 -12.9307,0 -25.8603,0 -38.7898,0 -1.61693,0 -3.03071,-0.649607 -3.23386,-1.45276 -1.00866,-6.30945 -1.91929,-12.5976 -2.82756,-18.8847 -0.101575,-0.801969 1.00984,-1.4752 2.62559,-1.4752 12.6284,0 25.3559,0.022441 37.9819,0 1.61693,0.022441 3.03189,0.651969 3.23386,1.4752 1.21063,6.28701 2.42362,12.5976 3.73701,18.8847z"/>
   <path id="_319404688" class="fil10" d="M1176.3 1459.34c0,0 0,0 0,0 0.201969,0.82441 -1.00984,1.45394 -2.5252,1.45394 -12.1217,0 -24.2445,0 -36.3662,-0.022441 -1.61575,0 -2.93032,-0.628347 -3.03071,-1.4315 -0.908268,-6.28701 -1.91929,-12.5965 -2.82874,-18.8847 -0.100394,-0.801969 1.01102,-1.45276 2.62677,-1.45276 11.7177,0.022441 23.6386,0.022441 35.4579,0.022441 1.51536,0 2.82756,0.628347 3.02953,1.45158 1.21181,6.28819 2.42481,12.5976 3.63662,18.8634z"/>
   <path id="_319392280" class="fil10" d="M1155.99 1488.42c0,0 0,0 0,0 0.100394,0.801969 -1.1126,1.45276 -2.62795,1.45276 -12.5244,0 -25.1528,0 -37.578,0 -1.71614,0 -2.92914,-0.650788 -3.03071,-1.45276 -0.807875,-6.30945 -1.51417,-12.5976 -2.32323,-18.9059 -0.100394,-0.80315 1.01102,-1.45394 2.72717,-1.45394 12.1228,0 24.3461,0 36.6697,0.022441 1.51536,0 2.82874,0.628347 3.03071,1.45276 1.01102,6.28701 2.12126,12.5976 3.13229,18.8847z"/>
   <path id="_319412032" class="fil10" d="M1131.04 1517.47c0,0 0,0 0,0 0.100394,0.80315 -1.1126,1.45276 -2.82992,1.45276 -12.9295,0 -25.8591,0 -38.6882,0 -1.71851,0 -3.13229,-0.649607 -3.23386,-1.45276 -0.604725,-6.30945 -1.11024,-12.6189 -1.61693,-18.9059 -0.100394,-0.801969 1.1126,-1.45394 2.82992,-1.45394 12.5256,0 25.2532,0 37.8815,0 1.61457,0 3.02953,0.651969 3.12992,1.45394 0.809056,6.30827 1.61693,12.5965 2.52756,18.9059z"/>
   <path id="_319397968" class="fil10" d="M1120.43 1459.34c0,0 0,0 0,0 0.100394,0.80315 -1.1126,1.4315 -2.62677,1.4315 -12.1228,0 -24.3449,0 -36.4677,0 -1.51417,0 -2.82756,-0.650788 -2.92914,-1.45276 -0.504331,-6.28819 -1.11024,-12.5752 -1.61575,-18.8847 -0.100394,-0.801969 1.11142,-1.45276 2.62559,-1.45276 11.8205,0 23.7402,0.0212599 35.5583,0.0212599 1.51536,0 2.82874,0.650788 2.93032,1.45276 0.806694,6.28819 1.71732,12.5976 2.5252,18.8847z"/>
   <path id="_319382824" class="fil10" d="M1098.31 1488.42c0,0 0,0 0,0 0,0.780709 -1.21181,1.45276 -2.82756,1.4315 -12.5268,0.0212599 -25.0536,0 -37.5792,0 -1.61575,0 -2.92914,-0.650788 -3.02953,-1.45276 -0.303544,-6.30945 -0.707481,-12.5976 -1.01102,-18.9071 -0.101575,-0.80315 1.11142,-1.45276 2.72835,-1.45276 12.2221,0.0212599 24.4453,0.0212599 36.7701,0.0212599 1.51536,0 2.82756,0.650788 2.92914,1.45394 0.605906,6.28701 1.31221,12.5965 2.01969,18.9059z"/>
   <path id="_319412608" class="fil10" d="M1071.44 1517.47c0,0 0,0 0,0 0.100394,0.80315 -1.21181,1.45276 -2.82874,1.45276 -13.0311,-0.0212599 -25.9606,-0.0212599 -38.8914,-0.0212599 -1.61575,0 -2.92914,-0.628347 -3.03071,-1.45276 -0.201969,-6.28819 -0.302362,-12.5976 -0.402756,-18.8847 0,-0.801969 1.21181,-1.4752 2.82756,-1.4752 12.6272,0 25.3547,0.0212599 37.9819,0.0212599 1.61693,0 2.93032,0.651969 3.03071,1.45394 0.403937,6.28701 0.807875,12.5965 1.31339,18.9059z"/>
   <path id="_319384312" class="fil10" d="M1063.06 1459.32c0,0 0,0 0,0 0,0.801969 -1.21417,1.43032 -2.72953,1.43032 -12.1205,0 -24.3437,0 -36.365,0 -1.51417,0 -2.82874,-0.649607 -2.82874,-1.45158 -0.100394,-6.28819 -0.302362,-12.5764 -0.402756,-18.8858 0,-0.801969 1.21063,-1.43032 2.72599,-1.43032 11.8193,0 23.6386,0 35.4579,0 1.51536,0 2.82756,0.650788 2.82756,1.45276 0.403937,6.30945 0.90945,12.5965 1.31457,18.8847z"/>
   <path id="_319395016" class="fil10" d="M1039.02 1488.4c0,0 0,0 0,0 0,0.801969 -1.31339,1.45276 -2.82874,1.45276 -12.5268,0 -25.1528,0 -37.5792,0 -1.61575,0 -2.82756,-0.650788 -2.82756,-1.45276 0,-6.30945 0,-12.6189 0.101575,-18.9071 0,-0.80315 1.31221,-1.45276 2.82756,-1.45276 12.1228,0 24.4465,0 36.6685,0 1.51536,0 2.82992,0.649607 2.93032,1.45276 0.201969,6.30945 0.403937,12.5976 0.707481,18.9071z"/>
   <path id="_319388176" class="fil10" d="M1010.33 1517.45c0,0 0,0 0,0 0,0.801969 -1.31339,1.45276 -2.92914,1.45276 -12.9307,0 -25.9618,0 -38.791,0 -1.61575,0 -2.92914,-0.650788 -2.92914,-1.45276 0.201969,-6.30945 0.504331,-12.5976 0.807875,-18.9071 0,-0.80315 1.31339,-1.45276 2.93032,-1.45276 12.5244,0 25.2532,0 37.8815,0 1.61457,0 2.92796,0.649607 2.92796,1.45276 0,6.30945 0,12.5976 0.101575,18.9071z"/>
   <path id="_319408192" class="fil10" d="M1007.09 1459.3c0,0 0,0 0,0 0,0.801969 -1.21181,1.45158 -2.72717,1.45158 -12.2221,0 -24.3449,-0.0200788 -36.3662,-0.0200788 -1.61575,0 -2.82756,-0.629528 -2.82756,-1.4315 0.302362,-6.28819 0.605906,-12.5976 0.806694,-18.8858 0.101575,-0.801969 1.31457,-1.45276 2.82874,-1.45276 11.8193,0 23.6386,0 35.4567,0 1.51654,0 2.72717,0.650788 2.72717,1.45276 0.101575,6.30945 0.101575,12.5976 0.101575,18.8858z"/>
   <path id="_319409992" class="fil10" d="M981.233 1488.4c0,0 0,0 0,0 0,0.801969 -1.31339,1.45276 -2.92914,1.45276 -12.5256,-0.0212599 -25.0536,-0.0212599 -37.578,-0.0212599 -1.51536,0 -2.82874,-0.651969 -2.72835,-1.45394 0.405118,-6.30827 0.809056,-12.5965 1.31339,-18.9059 0,-0.801969 1.41496,-1.45276 2.93032,-1.45276 12.1217,0 24.4453,0 36.6685,0 1.51536,0 2.82756,0.670867 2.82756,1.47402 -0.200788,6.28819 -0.302362,12.5976 -0.504331,18.9071z"/>
   <path id="_319412728" class="fil10" d="M950.727 1517.45c0,0 0,0 0,0 0,0.801969 -1.41496,1.45276 -3.03071,1.45276 -12.9295,0 -25.8591,0 -38.7898,0 -1.61693,0 -2.82756,-0.650788 -2.82756,-1.45276 0.604725,-6.30945 1.31221,-12.6189 2.01851,-18.9071 0.101575,-0.80315 1.41378,-1.45276 3.03071,-1.45276 12.5268,0 25.1528,0 37.8815,0 1.51536,0 2.82874,0.649607 2.82874,1.45276 -0.405118,6.28819 -0.809056,12.5976 -1.11142,18.9071z"/>
   <path id="_319398328" class="fil10" d="M949.817 1459.3c0,0 0,0 0,0 0,0.801969 -1.31221,1.4315 -2.92914,1.4315 -12.1217,0 -24.3449,0 -36.3662,0 -1.51536,0 -2.72835,-0.650788 -2.72835,-1.45276 0.708662,-6.28937 1.41496,-12.5976 2.02205,-18.8858 0.100394,-0.801969 1.41378,-1.45276 2.92914,-1.45276 11.8181,0 23.6374,0 35.5583,0.0212599 1.51417,-0.0212599 2.72599,0.629528 2.62559,1.4315 -0.302362,6.30945 -0.707481,12.6189 -1.11142,18.9071z"/>
   <path id="_319403272" class="fil10" d="M922.139 1488.38c0,0 0,0 0,0 -0.101575,0.801969 -1.51654,1.45394 -3.03189,1.45394 -12.5256,0 -25.1516,0 -37.6784,0 -1.61575,0 -2.82874,-0.651969 -2.62559,-1.45394 0.807875,-6.30827 1.61575,-12.6189 2.5252,-18.9272 0.100394,-0.80315 1.41378,-1.45394 2.92914,-1.45394 12.3248,0 24.5469,0.022441 36.7701,0.022441 1.61575,0 2.82756,0.650788 2.72717,1.45276 -0.605906,6.28701 -1.11142,12.5976 -1.61575,18.9059z"/>
   <path id="_319395184" class="fil10" d="M889.712 1517.45c0,0 0,0 0,0 -0.100394,0.801969 -1.51536,1.45276 -3.23268,1.45276 -12.9295,0 -25.8591,-0.022441 -38.7898,-0.022441 -1.61693,0 -2.82874,-0.649607 -2.72835,-1.45276 1.01102,-6.30945 2.12244,-12.5965 3.23268,-18.9059 0.101575,-0.801969 1.51536,-1.45276 3.13229,-1.45276 12.5256,0 25.154,0 37.8815,0 1.61575,0 2.92796,0.650788 2.82756,1.45276 -0.807875,6.30945 -1.61575,12.6189 -2.32323,18.9284z"/>
   <path id="_319383304" class="fil10" d="M893.753 1459.28c0,0 0,0 0,0 0,0.801969 -1.21181,1.43032 -2.82756,1.43032 -12.2232,0 -24.3449,0 -36.4677,0 -1.51536,0 -2.62559,-0.650788 -2.5252,-1.45276 1.11142,-6.28701 2.12126,-12.5752 3.23268,-18.8858 0.101575,-0.801969 1.41496,-1.45158 2.92914,-1.45158 11.8205,0 23.6386,0 35.5583,0 1.51536,0 2.62559,0.672048 2.5252,1.47402 -0.807875,6.28819 -1.51417,12.5965 -2.42481,18.8858z"/>
   <path id="_319387648" class="fil10" d="M864.357 1488.35c0,0 0,0 0,0 -0.100394,0.801969 -1.51536,1.45276 -3.23268,1.45276 -12.5256,0 -25.0512,0 -37.578,0 -1.51536,0 -2.72717,-0.650788 -2.5252,-1.45276 1.21299,-6.30945 2.42362,-12.6189 3.73701,-18.9059 0.101575,-0.80315 1.51654,-1.45394 3.03071,-1.45394 12.2232,0 24.4465,0 36.6697,0 1.71732,0 2.82756,0.650788 2.72599,1.45394 -0.908268,6.30827 -1.91811,12.5965 -2.82756,18.9059z"/>
   <path id="_319409032" class="fil10" d="M830.012 1517.43c0,0 0,0 0,0 -0.100394,0.80315 -1.51536,1.45276 -3.23268,1.45276 -12.9295,0 -25.8603,0 -38.791,0 -1.61575,0 -2.72717,-0.649607 -2.62559,-1.45276 1.41378,-6.30945 2.92914,-12.6189 4.44567,-18.9059 0.200788,-0.801969 1.61457,-1.45276 3.23032,-1.45276 12.528,0 25.154,0 37.8815,0 1.61693,0 2.72835,0.650788 2.62677,1.45276 -1.21181,6.30945 -2.42362,12.5965 -3.53504,18.9059z"/>
   <path id="_319381720" class="fil10" d="M836.578 1459.26c0,0 0,0 0,0 -0.100394,0.801969 -1.51536,1.45276 -3.03071,1.45276 -12.2221,0 -24.3449,-0.0212599 -36.4666,-0.0212599 -1.51536,0 -2.62677,-0.650788 -2.5252,-1.45276 1.51536,-6.28819 2.92914,-12.5764 4.44331,-18.8847 0.201969,-0.801969 1.61693,-1.45276 3.03189,-1.45276 11.9197,0 23.7378,0 35.6587,0.0212599 1.41378,0 2.5252,0.649607 2.42362,1.45158 -1.21181,6.28819 -2.32323,12.5988 -3.53504,18.8858z"/>
   <path id="_319410040" class="fil10" d="M805.162 1488.35c0,0 0,0 0,0 -0.201969,0.801969 -1.71614,1.45276 -3.23268,1.45276 -12.5268,0 -25.1528,0 -37.6796,0 -1.61575,-0.0212599 -2.72717,-0.672048 -2.52402,-1.47402 1.71732,-6.28819 3.33307,-12.5976 5.04922,-18.9071 0.101575,-0.80315 1.51536,-1.45276 3.13229,-1.45276 12.2232,0 24.4465,0 36.7689,0 1.51536,0 2.62795,0.649607 2.52638,1.45276 -1.41378,6.30945 -2.72717,12.6189 -4.04055,18.9284z"/>
   <path id="_319386544" class="fil10" d="M768.997 1517.43c0,0 0,0 0,0 -0.200788,0.80315 -1.71614,1.45276 -3.33307,1.45276 -12.9295,0 -25.8603,0 -38.791,0 -1.71614,0 -2.82756,-0.649607 -2.62559,-1.45276 1.81772,-6.30945 3.73701,-12.6189 5.6563,-18.9284 0.201969,-0.801969 1.71732,-1.45276 3.33425,-1.45276 12.626,0 25.2532,0 37.8815,0 1.61575,0 2.82756,0.650788 2.62559,1.45276 -1.61693,6.30945 -3.23386,12.6189 -4.74804,18.9284z"/>
   <path id="_319412392" class="fil10" d="M780.615 1459.24c0,0 0,0 0,0 -0.201969,0.801969 -1.61693,1.45276 -3.1311,1.45276 -12.1228,0 -24.2445,0 -36.4677,0 -1.51536,0 -2.62559,-0.650788 -2.42362,-1.45276 1.91929,-6.28819 3.83859,-12.5976 5.6563,-18.9071 0.303544,-0.801969 1.71851,-1.45276 3.13229,-1.45276 11.9197,0 23.739,0.022441 35.6587,0.022441 1.41496,0 2.52402,0.650788 2.32323,1.45276 -1.61693,6.30827 -3.1311,12.5965 -4.74804,18.8847z"/>
   <path id="_319380760" class="fil10" d="M723.238 1459.24c0,0 0,0 0,0 -0.201969,0.801969 -1.61693,1.43032 -3.13229,1.43032 -12.2232,0 -24.3449,0 -36.4666,0 -1.61693,0 -2.5252,-0.649607 -2.32323,-1.45158 2.32323,-6.28819 4.64646,-12.5976 6.86812,-18.9083 0.303544,-0.801969 1.71732,-1.45158 3.23268,-1.45158 11.8193,0 23.6386,0.0212599 35.5583,0.0212599 1.51536,0 2.5252,0.650788 2.22284,1.45276 -1.91929,6.30945 -3.94016,12.6189 -5.95985,18.9071z"/>
   <path id="_319410568" class="fil10" d="M709.398 1517.43c0,0 0,0 0,0 -0.201969,0.80315 -1.71732,1.45276 -3.43347,1.45276 -12.9307,-0.0212599 -25.8614,-0.0212599 -38.7922,-0.0212599 -1.61575,0 -2.72599,-0.650788 -2.52402,-1.45276 2.22166,-6.30945 4.54489,-12.6189 6.86812,-18.9071 0.303544,-0.801969 1.8189,-1.45276 3.33425,-1.45276 12.7276,0 25.3559,0 37.9819,0 1.61693,0 2.72717,0.650788 2.5252,1.45276 -2.01969,6.30945 -4.04055,12.6189 -5.95985,18.9284z"/>
   <path id="_319395976" class="fil10" d="M747.381 1488.33c0,0 0,0 0,0 -0.20315,0.801969 -1.71851,1.45276 -3.33425,1.45276 -12.5256,0 -25.0524,0 -37.6796,0 -1.51536,0 -2.62677,-0.650788 -2.32205,-1.45276 2.01969,-6.30945 4.04055,-12.6189 6.16063,-18.9284 0.20315,-0.80315 1.61693,-1.45276 3.23268,-1.45276 12.2232,0 24.4453,0.0212599 36.7701,0.0212599 1.51536,0 2.62677,0.649607 2.42481,1.45276 -1.8189,6.30945 -3.53622,12.5976 -5.25237,18.9071z"/>
   <path id="_319381648" class="fil10" d="M1391.36 1488.46c0,0 0,0 0,0 0.405118,0.823229 -0.7063,1.45276 -2.22166,1.47402 -12.6272,-0.0212599 -25.1528,-0.0212599 -37.578,-0.0212599 -1.71732,-0.0212599 -3.1311,-0.650788 -3.43583,-1.45276 -2.32205,-6.30945 -4.74685,-12.5976 -7.0689,-18.8847 -0.303544,-0.80315 0.605906,-1.45276 2.22166,-1.45276 12.2221,0 24.4465,0 36.6685,0 1.61575,0 3.1311,0.649607 3.43465,1.45276 2.62559,6.28701 5.35394,12.5965 7.97953,18.8847z"/>
   <path id="_319396720" class="fil10" d="M1346.91 1459.41c0,0 0,0 0,0 0.302362,0.801969 -0.807875,1.43032 -2.32323,1.43032 -12.1228,0 -24.2445,0 -36.3662,-0.0212599 -1.51536,0 -2.93032,-0.628347 -3.23268,-1.4315 -2.12126,-6.28819 -4.34292,-12.5752 -6.46536,-18.8847 -0.201969,-0.780709 0.809056,-1.4315 2.32441,-1.4315 11.7177,0 23.6374,0 35.4555,0.022441 1.51536,0 2.93032,0.649607 3.23386,1.4315 2.42362,6.28701 4.94882,12.5965 7.37363,18.8847z"/>
   <path id="_319386064" class="fil10" d="M1258.02 1389.18c0,0 0,0 0,0 -0.201969,-0.499607 1.41496,-0.954331 2.82874,-0.954331 11.1118,0 22.2225,0 33.4359,0 1.41496,0 2.12126,0.454725 2.32323,0.975591 1.41496,4.20709 2.93032,8.413 4.44567,12.6189 0.201969,0.520867 -0.201969,0.93189 -1.61693,0.93189 -11.3138,-0.0212599 -22.728,-0.0212599 -34.0418,-0.0212599 -1.41496,0 -3.33544,-0.411024 -3.53622,-0.93189 -1.31339,-4.20709 -2.62677,-8.413 -3.83859,-12.6189z"/>
   <path id="_319386976" class="fil10" d="M1310.85 1389.22c0,0 0,0 0,0 -0.201969,-0.519685 1.31339,-0.975591 2.72599,-0.996851 11.1118,0.0212599 22.2248,0.0212599 33.4382,0.0212599 1.41378,0 2.12008,0.455906 2.42362,0.998032 1.61575,4.18465 3.43465,8.3693 5.25355,12.5752 0.200788,0.542126 -0.101575,0.954331 -1.51536,0.954331 -11.4154,0 -22.7292,0 -34.0429,-0.022441 -1.51536,0 -3.43583,-0.411024 -3.6378,-0.95315 -1.61457,-4.18465 -3.12992,-8.39056 -4.64528,-12.5764z"/>
  </g>
 </g>
</svg>
