<?xml version="1.0" encoding="UTF-8"?>
<svg version="1.1" viewBox="0 0 2048 2048" width="512" height="512" xmlns="http://www.w3.org/2000/svg">
<path transform="translate(183,34)" d="m0 0h1680l15 3 12 5 10 6 10 8 9 11 8 14 4 11 2 14 1 245v1217l-3 21-6 15-6 10-9 10-7 7-15 9-14 5-7 2-17 1h-426v165l-1 12-6 16-4 8-8 11-10 10-13 8-11 5-16 4-47 1h-129v114l-3 8-7 5h-7l-11-8-12-11-8-7-7-7-8-7-11-10-8-7-10-9-8-7-14-12-12-11-8-7-14-12-12-11-5-2h-311l-18-2-12-4-13-7-10-8-8-8-7-10-7-14-3-12-1-7v-167h-429l-16-1-15-5-15-8-12-11-9-10-8-15-4-13-1-9-1-1202v-99l1-170 3-15 7-16 10-14 8-8 15-10 15-6z" fill="#478DF9"/>
<path transform="translate(183,34)" d="m0 0h1680l15 3 12 5 10 6 10 8 9 11 8 14 4 11 2 14 1 249-1 1h-104l-1714-1-1-1v-79l1-170 3-15 7-16 10-14 8-8 15-10 15-6z" fill="#575A5C"/>
<path transform="translate(696,1338)" d="m0 0h654l15 3 12 4 8 4 10 7 10 9 9 13 6 13 3 9 1 7v406l-1 12-6 16-4 8-8 11-10 10-13 8-11 5-16 4-47 1h-129v114l-3 8-7 5h-7l-11-8-12-11-8-7-7-7-8-7-11-10-8-7-10-9-8-7-14-12-12-11-8-7-14-12-12-11-5-2h-311l-18-2-12-4-13-7-10-8-8-8-7-10-7-14-3-12-1-7v-172l-1-48 1-187 4-16 4-10 7-11 12-13 12-9 17-8z" fill="#F7921E"/>
<path transform="translate(425,465)" d="m0 0h1192l16 2 11 6 7 6 7 11 3 7v212l-4 13-7 9-8 7-9 4-5 1-1146 1-63-1-8-2-12-6-9-8-5-8-2-10-1-40v-162l2-16 5-9 8-8 8-5 10-3z" fill="#6A2EC0"/>
<path transform="translate(1933,355)" d="m0 0h1v1213l-3 21-6 15-6 10-9 10-7 7-15 9-14 5-7 2-17 1h-426l-1-1v-182h1l1 62 2-3 1 1v11l2 10v4h7l2 3 5-3 3 3v5l6 1 2 5 5 3 1-2 2 1h196l126-1 12-2 18-9 9-6 6-5 1-2h2l2-4 10-17 3-14 1-10 2-21 1-1074 1-45z" fill="#2365D3"/>
<path transform="translate(1891,44)" d="m0 0 5 1 13 10 10 12 8 14 4 11 2 14 1 249-1 1h-104l-1714-1v-38l6-1h642l1082-1 31-1 7-3 6-8 2-9 1-21v-178l-1-34z" fill="#434241"/>
<path transform="translate(1378,820)" d="m0 0h242l15 3 11 6 8 8 6 11 2 12-1 172-2 9-5 8-8 9-10 6-14 3h-227l-17-1-12-3-10-6-5-5-5-8-3-11-2-31v-143l1-9 6-10 9-10 11-7z" fill="#FDC820"/>
<path transform="translate(898,820)" d="m0 0h242l15 3 11 6 8 8 6 11 2 13-1 171-3 11-6 9-9 8-7 4-14 3h-227l-17-1-12-3-10-6-5-5-5-8-3-11-1-10-1-22v-141l1-10 6-10 9-10 11-7z" fill="#FDC820"/>
<path transform="translate(419,820)" d="m0 0h241l15 3 11 6 8 8 6 11 2 14-1 170-3 11-6 9-9 8-7 4-14 3h-227l-17-1-12-3-10-6-7-7-4-8-2-9-2-33v-137l1-12 4-8 7-9 8-7 12-6z" fill="#FDC820"/>
<path transform="translate(1853,356)" d="m0 0h39l1 1v1121l-1 39-1 17-3 18-2 5-2 6-7 12-11 12-7 6-14 8-6 2-13 3-383 1-5-3-4-4-5-2-2-3v-10-4l-1 4-1 12-2-1v-131h1l1 62 2-3 1 1v11l2 10v4h7l2 3 5-3 3 3v5l6 1 2 5 5 3 1-2 2 1h196l126-1 12-2 18-9 9-6 6-5 1-2h2l2-4 10-17 3-14 1-10 2-21 1-1074z" fill="#357AE8"/>
<path transform="translate(623,1539)" d="m0 0h1v56l1 52-1 1h-429l-16-1-15-5-15-8-12-11-9-10-8-15-4-13-1-14 4-1 1-4 6-5 5-1 16 3 13 2 48 1h272l127-1 10 1 1-2 3-1z" fill="#357AE8"/>
<path transform="translate(1379,1347)" d="m0 0 4 1 11 7 11 10 9 13 6 13 3 9 1 7v406l-1 12-6 16-4 8-8 11-10 10-13 8-11 5-16 4-47 1h-129v114l-3 8-7 5h-7l-11-8-12-11-8-7-1-4 5-12 1-50 3-39 3-8 3-5 8-7 4-4 9-4 5-2 7-2 19-1 4 1 16-2h12l10-1h63l16-2 15-2 12-4 9-7 10-11 6-9 4-10 3-12 1-7 2-7 2-32-1-6v-24l1-6-1-4 1-8-1-9 1-6-1-3v-25l1-2-1-4 1-6-1-3h2l-1-8v-12l1-10v-221l-1-27-1-7-4-2-2-4z" fill="#F08219"/>
<path transform="translate(623,1595)" d="m0 0h1l1 52-1 1h-429l-16-1-15-5-15-8-12-11-9-10-2-6 4-2 492 1z" fill="#2365D3"/>
<path transform="translate(932,1513)" d="m0 0 8 2 6 5 3 9-1 7-6 7-18 10-16 8-28 15-22 12-25 13-18 10-3 2 22 12 27 14 22 12 34 18 24 13 7 8 1 9-4 8-5 4-3 1h-7l-21-10-22-12-34-18-22-12-16-8-22-12-26-14-6-9v-8l5-8 17-10 27-14 22-12 25-13 22-12 23-12 22-12z" fill="#FEFDFD"/>
<path transform="translate(1111,1514)" d="m0 0h7l16 8 31 16 22 12 29 15 22 12 31 16 11 7 5 5 2 4v8l-3 5-8 7-16 8-28 15-23 12-16 9-16 8-56 30-9 1-8-4-5-8v-7l4-8 10-6 28-15 32-17 22-12 27-14 13-7v-2l-25-13-22-12-25-13-22-12-23-12-13-8-5-6-1-9 3-7 5-4z" fill="#FEFDFD"/>
<path transform="translate(906,1128)" d="m0 0h223l55 1 7 3 6 7v12l-6 7-4 2-36 1h-292l-7-3-4-5-2-4v-9l4-6 5-4 3-1z" fill="#FEFDFD"/>
<path transform="translate(424,1128)" d="m0 0h222l58 1 7 3 6 7v12l-6 7-4 2-38 1h-290l-7-3-4-5-2-4v-9l4-6 5-4 3-1z" fill="#FEFDFD"/>
<path transform="translate(1388,1128)" d="m0 0h227l50 1 6 3 6 7v11l-4 6-6 4-37 1h-291l-7-3-4-5-2-4v-9l4-6 5-4 3-1z" fill="#FEFDFD"/>
<path transform="translate(1339,1209)" d="m0 0h327l6 4 5 6 1 8-3 7-7 6-10 1h-320l-6-3-4-5-2-4v-9l4-6 5-4z" fill="#FEFDFD"/>
<path transform="translate(518,1208)" d="m0 0h29l158 1 6 3 5 5 1 3v11l-7 8-2 1-35 1h-295l-6-3-4-5-2-4v-9l4-6 5-4 3-1z" fill="#FEFDFD"/>
<path transform="translate(859,1209)" d="m0 0h326l6 3 5 5 1 3v11l-7 8-2 1-24 1h-306l-5-2-5-6-2-3v-10l4-6 5-4z" fill="#FEFDFD"/>
<path transform="translate(494,139)" d="m0 0h18l13 4 10 5 10 8 9 14 5 13 1 6v13l-4 15-6 10-9 10-10 7-15 6-5 1h-13l-12-3-9-4-9-6-7-6-8-14-4-14v-22l7-16 9-11 13-10 13-5z" fill="#F7911D"/>
<path transform="translate(300,139)" d="m0 0h7l16 4 11 6 10 9 6 7 6 13 2 6 1 7v11l-4 14-8 14-9 9-14 8-13 4h-15l-13-4-8-4-8-6-8-8-7-12-4-13v-22l5-12 7-11 10-9 11-6 13-4z" fill="#D93B50"/>
<path transform="translate(1069,1468)" d="m0 0h10l8 6 2 4v10l-11 30-16 41-18 47-20 52-22 57-11 28-6 11-4 3-9 1-8-3-4-5-1-2v-10l6-17 16-42 19-49 18-47 22-57 12-31 8-20 5-5z" fill="#FEFDFD"/>
<path transform="translate(697,140)" d="m0 0h15l12 3 13 7 10 9 6 9 4 8 3 14v10l-3 14-6 11-7 9-9 7-12 6-13 3h-9l-11-2-14-6-10-8-7-8-6-13-3-12v-15l4-13 6-10 7-8 11-8 11-5z" fill="#DAA256"/>
<path transform="translate(757,1330)" d="m0 0h579l8 1 2 4 8 1v1l-36 1h-626v-2l10-2 4-1 2 1v-2l4-1h26z" fill="#357BE9"/>
<path transform="translate(1586,809)" d="m0 0h8l13 2 10 4 9 1 1 4-10-1h-208l-29-1v-1l14-1 4-2 15-2 20-1 113-1z" fill="#357BE9"/>
<path transform="translate(587,810)" d="m0 0h48l13 2 11 3 9 1v4l-12-1h-236v-2l10-2 3-1 26-3z" fill="#357BE9"/>
<path transform="translate(1056,810)" d="m0 0h59l13 2 11 3 9 1v4l-13-1h-212l-23-1v-1l12-1 6-2 15-2 18-1z" fill="#357BE9"/>
<path transform="translate(935,1202)" d="m0 0h212l31 2 7 2v2l6 2-3 1-8-2-318-1v-1l33-2 3-1 15-1z" fill="#357BE9"/>
<path transform="translate(698,1044)" d="m0 0h2v2h-2v3h-2l-1 4-6 7-10 6-8 3-9 3-22 2h-97l-69-1-51-4-10-1-1-2 13 1h244v-2l9-3 10-7 7-8z" fill="#357AE9"/>
<path transform="translate(1658,1044)" d="m0 0h2v2h-2v3h-2l-1 4-6 7-7 4h-2v2l-13 4-3 2-27 2h-94l-64-1-54-4v-1h237v-2l16-4 10-7 8-10z" fill="#357BE9"/>
<path transform="translate(1178,1044)" d="m0 0h2v2h-2v3h-2l-1 4-5 6-11 7-8 3-7 3-26 2h-93l-65-1-15-1-39-3v-1l243-1v-2l9-3 10-7 7-8z" fill="#357BE9"/>
<path transform="translate(1120,1124)" d="m0 0h40l6 1 18 2v1h-321v-1l49-2z" fill="#377DEB"/>
<path transform="translate(1630,1123)" d="m0 0 13 1 7 1 11 1 3 2h-321v-1l49-2h170l49-1z" fill="#397FED"/>
<path transform="translate(425,1124)" d="m0 0 152 1h39l41-1h21l25 3v1h-320v-1l18-1 22-1z" fill="#397FEC"/>
<path transform="translate(659,1204)" d="m0 0h22l24 3v1h-321v-1l15-1 251-1z" fill="#357BE9"/>
<path transform="translate(1627,1204)" d="m0 0h16l22 3v1h-322v-1l15-1 264-1z" fill="#357BE9"/>
<path transform="translate(1630,1123)" d="m0 0 13 1 7 1 11 1 3 2h-112v-2l10-1 49-1z" fill="#357BE9"/>
<path transform="translate(657,1124)" d="m0 0h21l25 3v1h-113v-2l21-1z" fill="#357BE9"/>
<path transform="translate(1409,1850)" d="m0 0h2l-2 5-9 10-9 8-15 8-10 3v-2l8-2v-2l5-2v-2l8-5h2l1-3 4-2 5-5 6-5z" fill="#F59522"/>
<path transform="translate(406,819)" d="m0 0h7v3l-12 6-10 9-3 5h-3l1-5v-3-3h2l1-3 5-3 4-4z" fill="#387EEC"/>
<path transform="translate(1364,820)" d="m0 0 3 1-2 1-2 5-9 7-6 8-4-1 2-3-1-1v-5l3-1 3-3 2-4h3v-2l7-1z" fill="#377DEB"/>
<path transform="translate(884,820)" d="m0 0 3 1-2 1-2 5-9 7-6 8-4-1 2-3-1-5 5-4 2-4 4-1v-2l7-1z" fill="#377DEB"/>
<path transform="translate(674,1337)" d="m0 0h4l2 2 5 1v1l-10 3-9 5-7 1-6 5-1-3 5-5 5-3 2 1 1-4h3v-2h5z" fill="#387CEA"/>
<path transform="translate(559,208)" d="m0 0 1 3-5 12-6 10h-2l-2 4-4 4-5 2-4 1-1 2-3-1 12-8 7-7 8-13z" fill="#464646"/>
<path transform="translate(698,1044)" d="m0 0h2v2h-2v3h-2l-1 4-6 7-10 6-1 1h-5l5-5 10-7 7-8z" fill="#3A80ED"/>
<path transform="translate(1192,1156)" d="m0 0 2 1-4 4-3 1h-48v-1l12-1 36-1z" fill="#3C82F0"/>
<path transform="translate(461,233)" d="m0 0 4 2 10 7 9 4 9 3 16 2v1l-9 1-10-2-15-5-2-2-7-4-5-5z" fill="#464545"/>
<path transform="translate(1195,1233)" d="m0 0 2 1-6 7-3 1h-34v-1l10-1 24-1z" fill="#3C82EF"/>
<path transform="translate(1658,1044)" d="m0 0h2v2h-2v3h-2l-1 4-6 7-3 2-3-1 1-3 7-6 5-7z" fill="#397FED"/>
<path transform="translate(1178,1044)" d="m0 0h2v2h-2v3h-2l-1 4-5 6-4 3-3-1 1-3 8-7 4-6z" fill="#3A80ED"/>
<path transform="translate(559,208)" d="m0 0 1 3-5 12-3 5-4 2 8-16z" fill="#494949"/>
<path transform="translate(1426,1524)" d="m0 0 2 1-1 11-1 6h-2v-15z" fill="#3C82EF"/>
<path transform="translate(471,150)" d="m0 0 2 1-14 14v-3l8-9z" fill="#F3871A"/>
<path transform="translate(1163,823)" d="m0 0 1 2 5 1 3 3 1 4-5-2-6-6z" fill="#357BE9"/>
<path transform="translate(683,824)" d="m0 0 7 3 3 5h-3l-6-5-2-2z" fill="#357BE9"/>
</svg>
